<?xml version="1.0" encoding="UTF-8"?>
<svg width="200px" height="137px" viewBox="0 0 200 137" version="1.1" xmlns="http://www.w3.org/2000/svg" xmlns:xlink="http://www.w3.org/1999/xlink">
    <title>纵向主色备份</title>
    <defs>
        <polygon id="path-1" points="1.00017969 0.653855172 116.004492 0.653855172 116.004492 26 1.00017969 26"></polygon>
        <polygon id="path-3" points="0.0412755814 0.0988356164 76.1360779 0.0988356164 76.1360779 64.9907397 0.0412755814 64.9907397"></polygon>
        <polygon id="path-5" points="0.0412755814 0.0988356164 76.1360779 0.0988356164 76.1360779 64.9907397 0.0412755814 64.9907397"></polygon>
    </defs>
    <g id="页面-2" stroke="none" stroke-width="1" fill="none" fill-rule="evenodd">
        <g id="03Products" transform="translate(-860.000000, -2689.000000)">
            <g id="编组-17" transform="translate(206.000000, 689.000000)">
                <g id="编组-16" transform="translate(151.000000, 1790.000000)">
                    <g id="编组-15" transform="translate(366.000000, 41.000000)">
                        <g id="纵向主色备份" transform="translate(137.000000, 169.000000)">
                            <g id="编组" transform="translate(0.000000, 110.000000)">
                                <mask id="mask-2" fill="white">
                                    <use xlink:href="#path-1"></use>
                                </mask>
                                <g id="Clip-2"></g>
                                <path d="M4.769125,11.0950966 L16.5161953,11.0950966 L16.5161953,0.653855172 L21.1835781,0.653855172 L21.1835781,26.000269 L16.5161953,26.000269 L16.5161953,14.976269 L4.769125,14.976269 L4.769125,26.000269 L0.101742187,26.000269 L0.101742187,0.653855172 L4.769125,0.653855172 L4.769125,11.0950966 Z M25.1573672,26.000269 L25.1573672,0.653855172 L29.8130703,0.653855172 L29.8130703,12.1888897 L29.8831484,12.1888897 L39.4784609,0.653855172 L45.2482266,0.653855172 L34.65475,13.2100621 L46.1233047,26.000269 L40.1585781,26.000269 L29.8831484,14.5557862 L29.8130703,14.5557862 L29.8130703,26.000269 L25.1573672,26.000269 Z M59.1533437,19.8033034 C59.6196328,18.4315793 59.9574453,17.4480621 60.170375,16.8599241 C60.3779141,16.2708897 60.8190469,15.0677172 61.4865859,13.2495103 L66.1997891,0.653855172 L71.1205312,0.653855172 L61.1820156,26.000269 L57.0069766,26.000269 L47.07475,0.653855172 L52.0287344,0.653855172 L56.7410391,13.2495103 C57.4094766,15.0677172 57.8506094,16.2708897 58.05725,16.8599241 C58.2710781,17.4480621 58.6079922,18.4315793 59.0751797,19.8033034 L59.1533437,19.8033034 Z M82.8029141,19.5567517 L73.1815469,19.5567517 L70.7189297,26.000269 L65.7595547,26.000269 L75.8472109,0.653855172 L80.1004141,0.653855172 L90.1871719,26.000269 L85.2664297,26.000269 L82.8029141,19.5567517 Z M77.9540469,6.74771724 C77.0457266,9.38716552 76.2425234,11.5989586 75.5426406,13.3786138 L74.6801406,15.6746828 L81.3052187,15.6746828 L80.4436172,13.3857862 C79.7437344,11.5926828 78.9396328,9.38088966 78.0313125,6.74771724 L77.9540469,6.74771724 Z M100.500336,5.86102759 C101.725805,7.64695862 102.587406,8.92095862 103.081547,9.6919931 L103.17768,9.6919931 C103.864984,8.63047586 104.714008,7.36275172 105.745414,5.88075172 L109.368812,0.653855172 L114.7235,0.653855172 L105.874789,13.1195103 L115.106234,26.000269 L109.822523,26.000269 L105.855023,20.3331655 C104.882914,18.9497862 103.981781,17.6354414 103.158812,16.3937172 L103.081547,16.3937172 C102.225336,17.6811655 101.324203,18.9999931 100.383539,20.3331655 L96.4160391,26.000269 L91.1395156,26.000269 L100.364672,13.1195103 L91.5150625,0.653855172 L96.8706484,0.653855172 L100.500336,5.86102759 Z" id="Fill-1" fill="#1D4486"></path>
                                <path d="M143.824583,26.00875 L143.824583,22.4879167 L130.234167,22.4879167 L130.234167,0.87 L126.15,0.87 L126.15,26.00875 L143.824583,26.00875 Z M157.415,26.00875 L157.415,4.39083333 L165.65375,4.39083333 L165.65375,0.87 L145.056875,0.87 L145.056875,4.39083333 L153.295625,4.39083333 L153.295625,26.00875 L157.415,26.00875 Z M177.835833,26.00875 C181.92,26.00875 184.983125,24.8820833 187.095625,22.62875 C189.1025,20.4810417 190.123542,17.4179167 190.123542,13.439375 C190.123542,9.425625 189.1025,6.3625 187.095625,4.25 C184.983125,1.99666667 181.92,0.87 177.835833,0.87 L168.646458,0.87 L168.646458,26.00875 L177.835833,26.00875 Z M177.06125,22.4879167 L172.765833,22.4879167 L172.765833,4.39083333 L177.06125,4.39083333 C180.194792,4.39083333 182.483333,5.095 183.926875,6.53854167 C185.335208,7.946875 186.039375,10.270625 186.039375,13.439375 C186.039375,16.5377083 185.335208,18.82625 183.926875,20.305 C182.483333,21.7485417 180.194792,22.4879167 177.06125,22.4879167 Z M196.355417,26.22 C197.13,26.22 197.76375,25.9383333 198.327083,25.4454167 C198.855208,24.8820833 199.136875,24.2483333 199.136875,23.47375 C199.136875,22.6991667 198.855208,22.0302083 198.327083,21.5020833 C197.76375,20.93875 197.13,20.6922917 196.355417,20.6922917 C195.580833,20.6922917 194.911875,20.93875 194.418958,21.5020833 C193.855625,22.0302083 193.609167,22.6991667 193.609167,23.47375 C193.609167,24.2483333 193.855625,24.8820833 194.418958,25.4454167 C194.911875,25.9383333 195.580833,26.22 196.355417,26.22 Z" id="LTD." fill="#1D4486" fill-rule="nonzero"></path>
                            </g>
                            <g id="编组-3" transform="translate(54.000000, 0.000000)">
                                <g id="编组" transform="translate(2.000000, 0.000000)">
                                    <mask id="mask-4" fill="white">
                                        <use xlink:href="#path-3"></use>
                                    </mask>
                                    <g id="Clip-4"></g>
                                    <path d="M45.190136,0.0984794521 C57.1466244,0.0984794521 68.0233221,4.68943836 76.1360779,12.1911507 C76.0161012,12.3736849 75.8907523,12.5704658 75.7600314,12.7823836 L75.7394384,12.8144384 L75.7215314,12.8464932 C74.4071593,15.2862192 73.1080081,17.7339589 71.8034849,20.1772466 L58.4824849,45.1265616 L50.4350895,25.7396438 C49.9659267,24.7121096 48.9335895,24.0540959 47.7991826,24.0540959 C46.724764,24.0540959 45.7416709,24.6453288 45.2393802,25.5891644 L31.0534733,52.242726 L31.0319849,52.2747808 C30.7284616,52.7288904 30.4634384,53.232863 30.2046826,53.7154658 C28.4829267,56.9369726 26.7620663,60.1584795 25.0394151,63.3790959 L24.1780895,64.9907397 L23.6283453,63.2499863 C21.4983105,56.5051233 19.3646942,49.7611507 17.2355547,43.0153973 C16.3957174,40.3566301 15.9587872,40.1616301 13.1957407,40.1616301 L0.0412755814,40.1616301 C2.58138023,17.6217671 21.8242174,0.0984794521 45.190136,0.0984794521" id="Fill-3" fill="#FFFFFF" mask="url(#mask-4)"></path>
                                </g>
                                <path d="M82.1840682,17 C88.3293364,24.7862499 92,34.6289561 92,45.3327977 C92,70.5543383 71.6284448,91 46.5004483,91 C21.3706587,91 1,70.5543383 1,45.3327977 L1,45.2553316 L12.3948372,45.2553316 L21.2621706,73.6133509 L24.9758707,73.6133509 L28.5057688,73.6007401 L30.3303414,70.2769014 L35.6372925,60.4792336 C35.6704665,60.4188821 35.7009508,60.3576298 35.731435,60.2963774 L35.9528942,59.8595043 L36.4397458,59.8748174 C36.5320952,59.8775197 36.6253411,59.8793213 36.7185871,59.8793213 L46.9317109,59.8793213 L50.2069757,53.8108384 C46.9693679,53.8045331 43.7317602,53.7919223 40.4941524,53.7937238 L39.2245726,53.7946246 L48.6388295,35.6657416 L55.0683186,51.3048982 L55.0521799,51.3048982 L55.7183507,52.9533061 L51.5276615,60.8764729 L51.5366274,60.8755721 L44.786157,73.6070455 L49.2763092,73.6070455 L50.1549732,73.6070455 L50.2401498,73.6052439 L52.2189369,73.6124501 L53.3889945,71.5109553 L53.6669393,70.9903106 C53.6669393,70.9903106 53.8068082,70.7065683 53.8866053,70.5705521 L53.9036406,70.5426283 L59.0106508,60.8935875 L62.1846002,68.6194858 C62.4302675,69.2175967 62.6831075,69.8121044 62.9242918,70.4138183 C63.0767131,70.7921414 63.3663136,71.531673 63.3663136,71.531673 L64.3588453,73.6394732 L66.1995566,73.6277632 L68.0537169,73.6277632 L71.4724371,73.6277632 L69.4066801,68.5771497 L69.3806789,68.5771497 L69.1816346,68.0925358 C69.0892852,67.8673435 68.998729,67.6430519 68.9063796,67.4187603 L63.0856791,53.1893076 L79.859195,21.4570065 C80.6419232,19.9761418 81.3941672,18.4781624 82.1840682,17" id="Fill-5" fill="#FFF000"></path>
                                <g id="编组" transform="translate(2.000000, 0.000000)">
                                    <mask id="mask-6" fill="white">
                                        <use xlink:href="#path-5"></use>
                                    </mask>
                                    <g id="Clip-8"></g>
                                    <path d="M45.190136,0.0984794521 C57.1466244,0.0984794521 68.0233221,4.68943836 76.1360779,12.1911507 C76.0161012,12.3736849 75.8907523,12.5704658 75.7600314,12.7823836 L75.7394384,12.8144384 L75.7215314,12.8464932 C74.4071593,15.2862192 73.1080081,17.7339589 71.8034849,20.1772466 L58.4824849,45.1265616 L50.4350895,25.7396438 C49.9659267,24.7121096 48.9335895,24.0540959 47.7991826,24.0540959 C46.724764,24.0540959 45.7416709,24.6453288 45.2393802,25.5891644 L31.0534733,52.242726 L31.0319849,52.2747808 C30.7284616,52.7288904 30.4634384,53.232863 30.2046826,53.7154658 C28.4829267,56.9369726 26.7620663,60.1584795 25.0394151,63.3790959 L24.1780895,64.9907397 L23.6283453,63.2499863 C21.4983105,56.5051233 19.3646942,49.7611507 17.2355547,43.0153973 C16.3957174,40.3566301 15.9587872,40.1616301 13.1957407,40.1616301 L0.0412755814,40.1616301 C2.58138023,17.6217671 21.8242174,0.0984794521 45.190136,0.0984794521" id="Fill-7" fill="#FFF000" mask="url(#mask-6)"></path>
                                </g>
                                <path d="M81.1840682,17 C87.3293364,24.7862499 91,34.6280553 91,45.3327977 C91,70.5543383 70.6284448,91 45.5004483,91 C20.3715552,91 0,70.5543383 0,45.3327977 L0,45.2553316 L11.3948372,45.2553316 L20.2621706,73.6124501 L23.9758707,73.6124501 L27.5057688,73.6007401 L29.3303414,70.2769014 L34.6372925,60.4792336 C34.6704665,60.4188821 34.7009508,60.3576298 34.731435,60.2963774 L34.9528942,59.8595043 L35.4397458,59.8739166 C35.5320952,59.8775197 35.6253411,59.8793213 35.7185871,59.8793213 L45.9317109,59.8793213 L49.2069757,53.8108384 C45.9693679,53.8045331 42.7317602,53.7919223 39.4941524,53.7937238 L38.2245726,53.7946246 L47.6388295,35.6648408 L54.0683186,51.3039975 L54.0521799,51.3039975 L54.7183507,52.9533061 L50.5276615,60.8764729 L50.5366274,60.8755721 L43.786157,73.6070455 L48.2763092,73.6070455 L49.1549732,73.6070455 L49.2401498,73.6052439 L51.2189369,73.6124501 L52.3889945,71.5109553 L52.6678359,70.9903106 C52.6678359,70.9903106 52.8068082,70.7065683 52.8866053,70.5705521 L52.9036406,70.5426283 L58.0106508,60.8935875 L61.1846002,68.6185851 C61.4302675,69.2166959 61.6831075,69.8121044 61.9242918,70.4138183 C62.0767131,70.7921414 62.3663136,71.5307722 62.3663136,71.5307722 L63.3588453,73.6394732 L65.1995566,73.6268624 L67.0537169,73.6268624 L70.4724371,73.6268624 L68.4066801,68.5771497 L68.3806789,68.5771497 L68.1816346,68.091635 C68.0892852,67.8673435 67.998729,67.6430519 67.9063796,67.4187603 L62.0856791,53.1893076 L78.859195,21.4561058 C79.6419232,19.9761418 80.3941672,18.4781624 81.1840682,17" id="Fill-9" fill="#1D4486"></path>
                                <path d="M45.092612,0 C57.0350987,0 67.8973514,4.59775241 76,12.1129147 C75.8801727,12.2957545 75.7549801,12.4928648 75.624422,12.7051374 L75.6047488,12.7372458 L75.5859699,12.7693543 C74.2732354,15.2131645 72.9757027,17.6650018 71.6728047,20.1123796 L58.3684006,45.1025687 L50.3310311,25.6840885 C49.8624528,24.6539422 48.8314017,23.9957189 47.698408,23.9957189 C46.625328,23.9957189 45.6434597,24.5879415 45.1417948,25.5333571 L30.9735613,52.2315376 L30.9520997,52.2636461 C30.6489546,52.7185159 30.3842615,53.2233321 30.125828,53.7067428 C28.4071115,56.9327506 26.6875007,60.1596504 24.9669957,63.3865501 L24.1067432,65 L23.5576839,63.2572244 C21.4303027,56.5010703 19.3002389,49.7449162 17.1728577,42.988762 C16.3340668,40.3255441 15.8976809,40.1302176 13.1380767,40.1302176 L0,40.1302176 C2.53694007,17.5526222 21.7558037,0 45.092612,0" id="Fill-11" fill="#1D4486"></path>
                            </g>
                        </g>
                    </g>
                </g>
            </g>
        </g>
    </g>
</svg>