<svg width="200" height="24" viewBox="0 0 200 24" fill="none" xmlns="http://www.w3.org/2000/svg">
<path d="M3.77107 21.8284C2.27508 21.3938 1.07375 20.8294 0.166748 20.1348L1.75874 16.6028C2.62741 17.2394 3.65974 17.7514 4.85674 18.1371C6.05307 18.5234 7.24973 18.7161 8.44639 18.7161C9.77806 18.7161 10.7627 18.5184 11.3994 18.1228C12.0361 17.7271 12.3547 17.2011 12.3547 16.5448C12.3547 16.0628 12.1667 15.6618 11.7904 15.3434C11.4137 15.0251 10.9311 14.7694 10.3427 14.5761C9.75372 14.3834 8.95773 14.1708 7.9544 13.9394C6.41007 13.5728 5.14607 13.2061 4.16174 12.8391C3.17741 12.4731 2.33308 11.8841 1.62874 11.0735C0.92408 10.2628 0.57208 9.18213 0.57208 7.8308C0.57208 6.6538 0.890413 5.58747 1.52741 4.6318C2.16441 3.67647 3.12441 2.91914 4.40807 2.35948C5.69107 1.79981 7.2594 1.51981 9.11239 1.51981C10.4051 1.51981 11.6694 1.67448 12.9047 1.98281C14.1397 2.29181 15.2207 2.73581 16.147 3.31447L14.6997 6.8758C12.8274 5.81447 10.9551 5.28313 9.08339 5.28313C7.77073 5.28313 6.80073 5.4958 6.17373 5.92013C5.5464 6.3448 5.23307 6.90446 5.23307 7.59913C5.23307 8.29379 5.59507 8.81079 6.31873 9.14813C7.0424 9.48612 8.14706 9.81912 9.63339 10.1468C11.1774 10.5138 12.4417 10.8805 13.4257 11.2468C14.41 11.6138 15.2544 12.1928 15.959 12.9841C16.6634 13.7758 17.0157 14.8468 17.0157 16.1971C17.0157 17.3554 16.6924 18.4121 16.046 19.3674C15.399 20.3228 14.4294 21.0808 13.1364 21.6404C11.8431 22.1994 10.2704 22.4794 8.41739 22.4794C6.8154 22.4794 5.2664 22.2628 3.77107 21.8284ZM33.2852 17.6595C34.2502 17.1095 35.0078 16.3422 35.5578 15.3582C36.1078 14.3738 36.3828 13.2545 36.3828 11.9999C36.3828 10.7455 36.1078 9.62586 35.5578 8.64153C35.0078 7.6572 34.2502 6.88986 33.2852 6.33987C32.3198 5.78987 31.2392 5.51487 30.0428 5.51487C28.8458 5.51487 27.7652 5.78987 26.8002 6.33987C25.8352 6.88986 25.0779 7.6572 24.5279 8.64153C23.9779 9.62586 23.7025 10.7455 23.7025 11.9999C23.7025 13.2545 23.9779 14.3738 24.5279 15.3582C25.0779 16.3422 25.8352 17.1095 26.8002 17.6595C27.7652 18.2095 28.8458 18.4845 30.0428 18.4845C31.2392 18.4845 32.3198 18.2095 33.2852 17.6595ZM24.3542 21.1192C22.6652 20.2118 21.3432 18.9622 20.3879 17.3698C19.4325 15.7775 18.9549 13.9878 18.9549 11.9999C18.9549 10.0122 19.4325 8.22186 20.3879 6.62953C21.3432 5.0372 22.6652 3.78787 24.3542 2.88054C26.0425 1.97354 27.9388 1.51988 30.0428 1.51988C32.1462 1.51988 34.0378 1.97354 35.7172 2.88054C37.3962 3.78787 38.7178 5.0372 39.6832 6.62953C40.6481 8.22186 41.1305 10.0122 41.1305 11.9999C41.1305 13.9878 40.6481 15.7775 39.6832 17.3698C38.7178 18.9622 37.3962 20.2118 35.7172 21.1192C34.0378 22.0265 32.1462 22.4795 30.0428 22.4795C27.9388 22.4795 26.0425 22.0265 24.3542 21.1192ZM44.6624 1.86707H49.3524V18.311H59.5137V22.132H44.6624V1.86707ZM62.1479 1.86704H66.8379V22.132H62.1479V1.86704ZM80.6177 18.2819C82.6444 18.2819 84.2604 17.7176 85.4667 16.5882C86.6727 15.4592 87.2764 13.9296 87.2764 11.9996C87.2764 10.0699 86.6727 8.54026 85.4667 7.41126C84.2604 6.28193 82.6444 5.7176 80.6177 5.7176H76.3331V18.2819H80.6177ZM71.6431 1.86694H80.8494C83.0494 1.86694 84.9934 2.28694 86.6827 3.12661C88.3714 3.96594 89.6834 5.1486 90.62 6.67293C91.5557 8.19793 92.024 9.97326 92.024 11.9996C92.024 14.0262 91.5557 15.8022 90.62 17.3266C89.6834 18.8512 88.3714 20.0336 86.6827 20.8729C84.9934 21.7126 83.0494 22.1322 80.8494 22.1322H71.6431V1.86694Z" fill="white"/>
<path d="M108.482 17.9925C109.109 17.5872 109.423 16.9602 109.423 16.1105C109.423 14.4312 108.178 13.5922 105.688 13.5922H100.217V18.6002H105.688C106.923 18.6002 107.855 18.3978 108.482 17.9925ZM100.217 5.3992V10.1759H104.878C106.035 10.1759 106.914 9.97319 107.512 9.56786C108.11 9.16253 108.409 8.56453 108.409 7.77286C108.409 6.98186 108.11 6.3882 107.512 5.99253C106.914 5.5972 106.035 5.3992 104.878 5.3992H100.217ZM113.157 13.4325C113.813 14.2915 114.142 15.3482 114.142 16.6028C114.142 18.3788 113.451 19.7438 112.072 20.6992C110.691 21.6545 108.68 22.1322 106.035 22.1322H95.5557V1.86721H105.457C107.927 1.86721 109.823 2.34021 111.145 3.28554C112.467 4.23154 113.128 5.51487 113.128 7.1362C113.128 8.12053 112.892 8.99886 112.419 9.77052C111.946 10.5425 111.285 11.1509 110.436 11.5945C111.594 11.9612 112.501 12.5742 113.157 13.4325ZM117.702 1.86707H122.392V18.311H132.554V22.132H117.702V1.86707ZM147.897 17.6595C148.862 17.1095 149.62 16.3422 150.17 15.3582C150.72 14.3738 150.995 13.2545 150.995 11.9999C150.995 10.7455 150.72 9.62586 150.17 8.64153C149.62 7.6572 148.862 6.88986 147.897 6.33987C146.932 5.78987 145.851 5.51487 144.655 5.51487C143.458 5.51487 142.377 5.78987 141.412 6.33987C140.447 6.88986 139.69 7.6572 139.14 8.64153C138.59 9.62586 138.315 10.7455 138.315 11.9999C138.315 13.2545 138.59 14.3738 139.14 15.3582C139.69 16.3422 140.447 17.1095 141.412 17.6595C142.377 18.2095 143.458 18.4845 144.655 18.4845C145.851 18.4845 146.932 18.2095 147.897 17.6595ZM138.966 21.1192C137.277 20.2118 135.955 18.9622 135 17.3698C134.044 15.7775 133.567 13.9878 133.567 11.9999C133.567 10.0122 134.044 8.22186 135 6.62953C135.955 5.0372 137.277 3.78787 138.966 2.88054C140.654 1.97354 142.551 1.51988 144.655 1.51988C146.758 1.51988 148.65 1.97354 150.329 2.88054C152.008 3.78787 153.33 5.0372 154.295 6.62953C155.26 8.22186 155.743 10.0122 155.743 11.9999C155.743 13.9878 155.26 15.7775 154.295 17.3698C153.33 18.9622 152.008 20.2118 150.329 21.1192C148.65 22.0265 146.758 22.4795 144.655 22.4795C142.551 22.4795 140.654 22.0265 138.966 21.1192ZM163.371 21.1335C161.701 20.2361 160.389 18.9911 159.434 17.3991C158.478 15.8068 158.001 14.0071 158.001 11.9998C158.001 9.99282 158.478 8.19283 159.434 6.6005C160.389 5.00817 161.701 3.76351 163.371 2.86584C165.04 1.96851 166.917 1.51985 169.001 1.51985C170.757 1.51985 172.345 1.82851 173.764 2.44618C175.182 3.06417 176.374 3.95151 177.339 5.1095L174.328 7.88883C172.958 6.3065 171.259 5.51483 169.233 5.51483C167.978 5.51483 166.859 5.78983 165.875 6.33983C164.891 6.89016 164.123 7.65716 163.573 8.64149C163.023 9.62582 162.749 10.7455 162.749 11.9998C162.749 13.2545 163.023 14.3738 163.573 15.3581C164.123 16.3421 164.891 17.1095 165.875 17.6595C166.859 18.2098 167.978 18.4845 169.233 18.4845C171.259 18.4845 172.958 17.6838 174.328 16.0818L177.339 18.8608C176.374 20.0385 175.177 20.9358 173.749 21.5535C172.321 22.1705 170.728 22.4795 168.973 22.4795C166.907 22.4795 165.04 22.0308 163.371 21.1335ZM187.877 14.1709L185.155 17.0082V22.1322H180.495V1.86694H185.155V11.3339L194.13 1.86694H199.341L190.945 10.8996L199.833 22.1322H194.362L187.877 14.1709Z" fill="#0EC22B"/>
</svg>
